<?xml version="1.0" encoding="UTF-8" standalone="no"?>
<!-- Created with Inkscape (http://www.inkscape.org/) -->

<svg
   width="1920"
   height="1024"
   viewBox="0 0 507.99999 270.93333"
   version="1.1"
   id="svg5"
   xml:space="preserve"
   inkscape:version="1.2.1 (9c6d41e410, 2022-07-14)"
   sodipodi:docname="Lazarus.svg"
   inkscape:export-filename="Portada.png"
   inkscape:export-xdpi="96"
   inkscape:export-ydpi="96"
   xmlns:inkscape="http://www.inkscape.org/namespaces/inkscape"
   xmlns:sodipodi="http://sodipodi.sourceforge.net/DTD/sodipodi-0.dtd"
   xmlns:xlink="http://www.w3.org/1999/xlink"
   xmlns="http://www.w3.org/2000/svg"
   xmlns:svg="http://www.w3.org/2000/svg"><sodipodi:namedview
     id="namedview7"
     pagecolor="#ffffff"
     bordercolor="#cccccc"
     borderopacity="1"
     inkscape:showpageshadow="0"
     inkscape:pageopacity="1"
     inkscape:pagecheckerboard="0"
     inkscape:deskcolor="#d1d1d1"
     inkscape:document-units="px"
     showgrid="false"
     inkscape:zoom="0.47066795"
     inkscape:cx="779.74292"
     inkscape:cy="547.09483"
     inkscape:window-width="1920"
     inkscape:window-height="1017"
     inkscape:window-x="-8"
     inkscape:window-y="-8"
     inkscape:window-maximized="1"
     inkscape:current-layer="layer1" /><defs
     id="defs2"><linearGradient
       inkscape:collect="always"
       id="linearGradient12506"><stop
         style="stop-color:#1044ab;stop-opacity:1;"
         offset="0"
         id="stop12502" /><stop
         style="stop-color:#1044ab;stop-opacity:0;"
         offset="1"
         id="stop12504" /></linearGradient><linearGradient
       inkscape:collect="always"
       id="linearGradient5072"><stop
         style="stop-color:#f1020a;stop-opacity:1;"
         offset="0"
         id="stop5068" /><stop
         style="stop-color:#f1020a;stop-opacity:0;"
         offset="1"
         id="stop5070" /></linearGradient><linearGradient
       inkscape:collect="always"
       xlink:href="#linearGradient5072"
       id="linearGradient5074"
       x1="24.734369"
       y1="104.27777"
       x2="107.15108"
       y2="105.12099"
       gradientUnits="userSpaceOnUse"
       gradientTransform="matrix(1.0021101,0,0,1,-132.11155,0)" /><linearGradient
       inkscape:collect="always"
       xlink:href="#linearGradient5072"
       id="linearGradient5165"
       gradientUnits="userSpaceOnUse"
       gradientTransform="translate(82.416697)"
       x1="24.734369"
       y1="104.27777"
       x2="107.15108"
       y2="105.12099" /><linearGradient
       inkscape:collect="always"
       xlink:href="#linearGradient12506"
       id="linearGradient12500"
       x1="470.51483"
       y1="299.62296"
       x2="183.8212"
       y2="-53.890095"
       gradientUnits="userSpaceOnUse" /></defs><g
     inkscape:label="Capa 1"
     inkscape:groupmode="layer"
     id="layer1"><rect
       style="fill:#003399;stroke-width:0.6477;fill-opacity:1"
       id="rect234"
       width="508"
       height="270.93332"
       x="0"
       y="0"
       ry="0" /><path
       id="path8811"
       style="fill:none;fill-opacity:1;stroke:#87cdde;stroke-width:1.05833;stroke-dasharray:none"
       d="M 271.12016,-0.52916664 A 176.51332,176.51332 0 0 0 180.66367,153.49812 176.51332,176.51332 0 0 0 225.06923,270.40416 H 489.2841 a 176.51332,176.51332 0 0 0 18.22421,-24.61659 V 61.01953 a 176.51332,176.51332 0 0 0 -64.1382,-61.54869664 z" /><text
       xml:space="preserve"
       style="font-size:25.3125px;font-family:'Franklin Gothic Demi';-inkscape-font-specification:'Franklin Gothic Demi';text-align:end;text-anchor:end;fill:#ffffff;fill-opacity:1;stroke-width:1.16185"
       x="198.57928"
       y="42.880878"
       id="text1410"><tspan
         sodipodi:role="line"
         id="tspan1408"
         style="font-size:25.3125px;fill:#ffffff;stroke-width:1.16185"
         x="198.57928"
         y="42.880878">Free Pascal</tspan></text><text
       xml:space="preserve"
       style="font-size:59.3422px;font-family:'Franklin Gothic Demi';-inkscape-font-specification:'Franklin Gothic Demi';text-align:end;text-anchor:end;fill:#ffffff;fill-opacity:1;stroke-width:2.72381"
       x="232.6944"
       y="91.87571"
       id="text1516"><tspan
         sodipodi:role="line"
         id="tspan1514"
         style="stroke-width:2.72381"
         x="232.6944"
         y="91.87571">Lazarus</tspan></text><text
       xml:space="preserve"
       style="font-size:26.0288px;font-family:'Franklin Gothic Demi';-inkscape-font-specification:'Franklin Gothic Demi';text-align:end;text-anchor:end;fill:#ffffff;fill-opacity:1;stroke-width:1.19473"
       x="199.01396"
       y="178.45284"
       id="text5175"><tspan
         sodipodi:role="line"
         id="tspan5173"
         style="font-style:normal;font-variant:normal;font-weight:normal;font-stretch:normal;font-family:'Bernard MT Condensed';-inkscape-font-specification:'Bernard MT Condensed, ';stroke-width:1.19473"
         x="199.01396"
         y="178.45284">Temporada 1</tspan></text><text
       xml:space="preserve"
       style="font-style:normal;font-variant:normal;font-weight:normal;font-stretch:normal;font-size:19.9508px;font-family:Centaur;-inkscape-font-specification:Centaur;text-align:end;text-anchor:end;fill:#ffffff;fill-opacity:1;stroke-width:0.915749"
       x="100.54726"
       y="242.17741"
       id="text5281"><tspan
         sodipodi:role="line"
         id="tspan5279"
         style="font-style:normal;font-variant:normal;font-weight:normal;font-stretch:normal;font-family:Centaur;-inkscape-font-specification:Centaur;stroke-width:0.915749"
         x="105.43754"
         y="242.17741"><tspan
   style="font-style:normal;font-variant:normal;font-weight:normal;font-stretch:normal;font-family:'Bernard MT Condensed';-inkscape-font-specification:'Bernard MT Condensed, ';fill:#ffffff;stroke-width:0.915749"
   id="tspan5283">Capítulo 5:</tspan> </tspan></text><path
       id="path5463"
       style="fill:#1044ab;fill-opacity:1;stroke:none;stroke-width:0.73199"
       d="M 353.30763 14.12937 A 139.13073 139.13073 0 0 0 214.1771 153.25989 A 139.13073 139.13073 0 0 0 279.25892 270.93333 L 314.49656 270.93333 A 114.03638 114.03638 0 0 1 242.76502 165.13565 A 114.03638 114.03638 0 0 1 356.80147 51.099206 A 114.03638 114.03638 0 0 1 470.83792 165.13565 A 114.03638 114.03638 0 0 1 399.1069 270.93333 L 427.5279 270.93333 A 139.13073 139.13073 0 0 0 492.43867 153.25989 A 139.13073 139.13073 0 0 0 353.30763 14.12937 z " /><path
       style="fill:url(#linearGradient12500);stroke-width:0.463076;fill-opacity:1"
       d="m 425.24412,210.16091 c -0.27994,0.11081 -1.41687,0.648 -2.52642,1.19391 -1.10953,0.54593 -4.78023,1.50101 -8.15713,2.12244 -11.62171,2.13861 -17.12757,4.27512 -23.55233,9.13931 -6.17943,4.67837 -9.60641,9.19132 -14.19913,18.69815 -2.50148,5.17803 -4.95632,8.55126 -8.28573,11.38559 -2.45658,2.09127 -3.01498,2.37694 -7.27362,3.72076 -11.71226,3.69585 -22.45036,0.18678 -27.12231,-8.86317 -2.86983,-5.55914 -2.61626,-12.02151 0.73501,-18.73133 1.58376,-3.17097 5.80833,-9.55649 6.84985,-10.35369 1.2167,-0.9313 3.58533,-5.71772 4.43886,-8.96986 0.75621,-2.88129 0.81223,-4.55159 0.2759,-8.22809 -1.41544,-9.70329 -1.07886,-15.35323 1.14672,-19.24798 4.96437,-8.6877 14.60763,-14.42603 24.14429,-14.36734 3.5896,0.022 4.32062,0.24495 10.57297,3.22359 10.84228,5.16526 15.9139,5.30912 26.09283,0.74018 6.06622,-2.7229 9.40746,-3.2793 14.13039,-2.3531 4.85911,0.95292 7.59066,2.47777 10.59185,5.91267 7.37708,8.44335 6.25257,21.26676 -2.69438,30.72509 -1.88818,1.99609 -4.13318,3.8437 -5.16762,4.25287 z m -101.25101,7.78036 c -11.21962,4.43218 -30.61589,-0.30887 -37.39504,-9.14047 -0.90345,-1.17781 -2.33255,-2.4504 -3.17491,-2.82868 -8.51919,-3.82577 -16.21652,-16.15637 -14.54006,-23.29222 0.87459,-3.72258 1.23302,-3.62773 5.10717,1.35129 3.41773,4.39242 5.70226,6.33982 9.57705,8.16391 l 1.53163,0.721 2.19059,-1.91101 c 1.92293,-1.67751 2.68237,-2.05704 6.21688,-3.10492 14.62698,-4.33736 34.29495,3.86873 38.41214,16.02673 0.81151,2.39647 0.42209,6.19504 -0.85224,8.31247 -1.35067,2.24432 -4.26235,4.5915 -7.07321,5.7019 z m 76.83064,-58.74571 c -2.22989,0.71069 -4.89118,0.53246 -7.47686,-0.50072 -1.94292,-0.77635 -2.57719,-1.37261 -5.41209,-5.08778 -3.85299,-5.04897 -5.03095,-8.28195 -5.71893,-15.69241 -1.02015,-10.98864 2.2432,-20.90033 8.57624,-26.04844 3.12106,-2.53702 3.11445,-2.47555 0.89642,-8.40793 -1.1012,-2.94531 -1.96185,-4.375256 -4.38434,-7.284643 -3.26237,-3.918084 -3.29061,-4.208145 -0.44041,-4.513812 6.76118,-0.725223 16.70096,8.857395 19.39154,18.694775 0.38271,1.39928 1.49008,3.81653 2.46082,5.37166 3.51353,5.62871 4.94847,12.23469 4.47015,20.5791 -0.29686,5.17902 -2.3539,12.59615 -4.42441,15.95326 -1.77015,2.87009 -5.55466,6.1773 -7.93813,6.93694 z m -36.6203,-5.16995 c -5.2011,1.53937 -12.58945,-0.25077 -19.02838,-4.61045 -7.71004,-5.22032 -15.84444,-20.58868 -15.72931,-29.71775 0.0215,-1.71119 0.46459,-4.42455 0.98449,-6.0297 l 0.94526,-2.91848 -4.57478,-10.08745 c -5.73725,-12.650739 -5.68304,-12.498098 -3.79389,-10.685164 0.8175,0.784445 4.57491,4.328898 8.34989,7.87649 l 6.86358,6.450144 4.46384,0.51983 c 5.55686,0.64711 8.93497,1.64302 12.66066,3.73249 12.80038,7.17878 21.20491,23.29556 18.24563,34.98832 -0.45317,1.79061 -1.32078,4.03008 -1.92801,4.97663 -1.51633,2.36373 -4.64367,4.67183 -7.45898,5.50509 z m -35.69873,25.27361 c -6.37736,1.88753 -15.58693,-1.19877 -22.46605,-7.52881 -9.44615,-8.69215 -13.732,-20.39062 -11.78054,-32.1555 0.36164,-2.18022 0.41662,-4.48791 0.1222,-5.12814 -0.6192,-1.34638 -9.57098,-18.1162 -9.90817,-18.56145 -0.12389,-0.16367 -0.0902,-0.29688 0.0751,-0.29611 0.16533,7.8e-4 3.60309,3.11909 7.63975,6.9295 6.77521,6.39548 9.98063,8.75231 10.92279,8.03115 0.77883,-0.59613 6.30736,-0.44021 9.00846,0.25406 3.29355,0.84656 8.9846,3.89794 12.46526,6.68351 1.4073,1.12627 4.1781,4.18856 6.62127,7.31781 3.76161,4.81791 4.34322,5.79858 5.55686,9.37072 4.13416,12.16728 0.7611,22.4142 -8.25685,25.08326 z"
       id="path11766"
       sodipodi:nodetypes="sssssssssssssssssssssssssscscssssscsssssssssssssscssscssssssssssssssssss" /><text
       xml:space="preserve"
       style="font-style:normal;font-variant:normal;font-weight:normal;font-stretch:normal;font-size:24.7945px;font-family:'Bernard MT Condensed';-inkscape-font-specification:'Bernard MT Condensed, ';text-align:end;text-anchor:end;fill:#f1020a;fill-opacity:1;stroke:none;stroke-width:1.13806"
       x="112.31599"
       y="242.00246"
       id="text5293"><tspan
         sodipodi:role="line"
         id="tspan5291"
         style="font-style:normal;font-variant:normal;font-weight:normal;font-stretch:normal;font-family:Centaur;-inkscape-font-specification:Centaur;text-align:start;text-anchor:start;fill:#ffffff;stroke-width:1.13806"
         x="112.31599"
         y="242.00246">Variables de Tipo Integer</tspan></text><text
       xml:space="preserve"
       style="font-style:normal;font-variant:normal;font-weight:normal;font-stretch:normal;font-size:9.71634px;font-family:Centaur;-inkscape-font-specification:Centaur;text-align:end;text-anchor:end;fill:#ffffff;fill-opacity:1;stroke-width:0.445984"
       x="486.90857"
       y="22.463552"
       id="text14120"><tspan
         sodipodi:role="line"
         id="tspan14118"
         style="font-style:normal;font-variant:normal;font-weight:normal;font-stretch:normal;font-family:'Bernard MT Condensed';-inkscape-font-specification:'Bernard MT Condensed, ';stroke-width:0.445984"
         x="486.90857"
         y="22.463552">JULIÁN ANDRÉS RINCÓN PENAGOS</tspan></text><g
       id="g5171"
       transform="matrix(1.3235242,0,0,1.3235242,-8.002167,-8.4148579)"><rect
         style="fill:url(#linearGradient5074);fill-opacity:1;stroke-width:0.498528"
         id="rect3764"
         width="82.590614"
         height="28.885853"
         x="-107.32498"
         y="89.834846"
         transform="scale(-1,1)" /><rect
         style="fill:url(#linearGradient5165);fill-opacity:1;stroke:none;stroke-width:0.498003"
         id="rect5163"
         width="82.41671"
         height="28.885853"
         x="107.15108"
         y="89.834846" /><text
         xml:space="preserve"
         style="font-size:22.7899px;font-family:'Franklin Gothic Demi';-inkscape-font-specification:'Franklin Gothic Demi';text-align:end;text-anchor:end;fill:#ffffff;fill-opacity:1;stroke-width:1.04606"
         x="142.4821"
         y="109.44938"
         id="text1520"><tspan
           sodipodi:role="line"
           id="tspan1518"
           style="stroke-width:1.04606"
           x="142.4821"
           y="109.44938">Project</tspan></text></g></g></svg>
