<?xml version="1.0" encoding="UTF-8" standalone="no"?>
<!-- Created with Inkscape (http://www.inkscape.org/) -->

<svg
   width="1366"
   height="768"
   viewBox="0 0 361.42083 203.2"
   version="1.1"
   id="svg427"
   inkscape:version="1.2.1 (9c6d41e410, 2022-07-14)"
   sodipodi:docname="Iconos.svg"
   xmlns:inkscape="http://www.inkscape.org/namespaces/inkscape"
   xmlns:sodipodi="http://sodipodi.sourceforge.net/DTD/sodipodi-0.dtd"
   xmlns="http://www.w3.org/2000/svg"
   xmlns:svg="http://www.w3.org/2000/svg">
  <sodipodi:namedview
     id="namedview429"
     pagecolor="#ffffff"
     bordercolor="#cccccc"
     borderopacity="1"
     inkscape:showpageshadow="0"
     inkscape:pageopacity="1"
     inkscape:pagecheckerboard="0"
     inkscape:deskcolor="#d1d1d1"
     inkscape:document-units="px"
     showgrid="false"
     inkscape:zoom="1.3231076"
     inkscape:cx="452.72207"
     inkscape:cy="254.32551"
     inkscape:window-width="1920"
     inkscape:window-height="1017"
     inkscape:window-x="-8"
     inkscape:window-y="-8"
     inkscape:window-maximized="1"
     inkscape:current-layer="layer1" />
  <defs
     id="defs424" />
  <g
     inkscape:label="Capa 1"
     inkscape:groupmode="layer"
     id="layer1">
    <g
       id="g771"
       transform="translate(-33.595152,-18.197374)">
      <rect
         style="fill:none;stroke:none;stroke-width:1.37546"
         id="rect602"
         width="31.75"
         height="31.75"
         x="37.612656"
         y="22.341351"
         ry="0" />
      <g
         aria-label="A.B"
         id="text757"
         style="font-size:26.0288px;font-family:'Berlin Sans FB';-inkscape-font-specification:'Berlin Sans FB, Normal';text-align:end;text-anchor:end;fill:#000080;stroke-width:1.32292"
         transform="matrix(0.78773498,0,0,0.76861554,1.2776816,-25.452785)">
        <path
           d="m 64.365842,91.758109 q 0,0.152513 -0.305025,0.152513 -0.241478,0 -0.711725,-0.03813 -0.457537,-0.03813 -0.699015,-0.03813 -0.241479,0 -0.724435,0.03813 -0.482956,0.03813 -0.724434,0.03813 -0.355863,0 -0.915075,-1.919116 -0.546503,-1.931825 -1.118425,-1.957244 -0.470247,-0.02542 -2.452909,-0.02542 h -2.008081 q -2.097047,0 -2.389363,0.02542 -0.457537,0.03813 -0.978622,1.957244 -0.508375,1.919116 -0.787981,1.919116 h -2.859609 q -0.254188,0 -0.254188,-0.177932 0,-0.127093 0.177932,-0.571921 l 3.113796,-8.515281 q 0.393991,-1.02946 2.389363,-5.935278 0.355862,-0.8134 0.965912,-2.45291 0.152513,-0.482956 0.330444,-0.482956 0.241478,0 0.711725,0.06355 0.470247,0.06355 0.711725,0.06355 0.228769,0 0.686306,-0.06355 0.470247,-0.07626 0.686306,-0.07626 0.114385,0 0.317735,0.470247 0.305025,0.711725 3.012121,7.663753 3.825522,9.773509 3.825522,9.862475 z m -5.922568,-7.015575 q 0,-0.368571 -1.143844,-3.304437 -1.105716,-2.8469 -1.563253,-3.736556 -2.630841,6.71055 -2.630841,7.028284 0,0.432119 0.965913,0.508375 0.05084,0.01271 1.245518,0.01271 h 1.309066 q 1.817441,0 1.817441,-0.508376 z"
           id="path759" />
        <path
           d="m 68.920866,83.393303 c 0,0.559212 -0.19064,1.050641 -0.571922,1.474287 -0.372808,0.415173 -0.834581,0.622759 -1.385321,0.622759 -0.55074,0 -1.012514,-0.216059 -1.385322,-0.648178 -0.355862,-0.4067 -0.533794,-0.889656 -0.533794,-1.448868 0,-0.567686 0.182168,-1.050642 0.546503,-1.448869 0.364336,-0.4067 0.821873,-0.61005 1.372613,-0.61005 0.559212,0 1.025223,0.20335 1.398031,0.61005 0.372808,0.4067 0.559212,0.889657 0.559212,1.448869 z"
           id="path761"
           sodipodi:nodetypes="scscscsss" />
        <path
           d="m 85.120251,86.420172 q 0,2.211431 -1.334484,3.800103 -1.410741,1.664928 -3.584044,1.664928 -0.8134,0 -2.452909,-0.03813 -1.6268,-0.03813 -2.4402,-0.03813 -0.597341,0 -1.804731,0.05084 -1.194682,0.05084 -1.792022,0.05084 -0.317734,0 -0.317734,-0.292316 0,-1.398031 0.127093,-4.194094 0.139803,-2.808771 0.139803,-4.206803 0,-1.474287 -0.139803,-4.422862 -0.127093,-2.961284 -0.127093,-4.435572 0,-0.279606 0.317734,-0.279606 1.131134,0 3.406112,0.01271 2.274978,0.01271 3.418822,0.01271 2.668969,0 4.25764,0.991331 1.931825,1.207391 1.931825,3.749266 0,0.876946 -0.508375,1.83015 -0.508375,0.940493 -1.232809,1.423449 -0.368572,0.241479 -0.368572,0.317735 0,0.07626 0.368572,0.279606 0.965913,0.533794 1.550544,1.575963 0.584631,1.029459 0.584631,2.147884 z m -3.571334,-7.295181 q 0,-1.792022 -1.601381,-2.414781 -0.965913,-0.368572 -3.164635,-0.368572 -2.135175,0 -2.135175,0.317734 0,0.41941 -0.03813,1.258228 -0.03813,0.838819 -0.03813,1.270938 0,0.292315 0.01271,0.902365 0.01271,0.61005 0.01271,0.915075 0,0.368572 2.872319,0.368572 4.079709,0 4.079709,-2.249559 z m 0.343153,7.168087 q 0,-1.550544 -1.385322,-2.097047 -0.876947,-0.355862 -2.732515,-0.355862 -3.202763,0 -3.202763,0.343153 v 2.084337 q 0,0.457538 0.02542,1.398032 0.02542,0.940493 0.02542,1.41074 0,0.127094 0.8134,0.190641 0.8134,0.06355 2.414781,0.06355 2.008081,0 2.885028,-0.521085 1.156553,-0.686306 1.156553,-2.516456 z"
           id="path763" />
      </g>
    </g>
  </g>
</svg>
